<svg xmlns:ev="http://www.w3.org/2001/xml-events" xmlns="http://www.w3.org/2000/svg" viewBox="0 0 523 788" ed:name="页面-1" width="523" id="page300000100" height="788" xmlns:ed="https://www.edrawsoft.cn/xml/2017/SVGExtensions/" ed:hSpacing="30" xmlns:xlink="http://www.w3.org/1999/xlink" ed:vSpacing="30"><style type="text/css"><![CDATA[
g[ed\:togtopicid],g[ed\:hyperlink],g[ed\:comment],g[ed\:note] {cursor:pointer;}
g[id] {-moz-user-select: none;-ms-user-select: none;user-select: none;}
svg text::selection,svg tspan::selection{background-color: #4285f4;color: #ffffff;fill: #ffffff;}
.st3 {fill:#303030;font-family:微软雅黑;font-size:10pt}
.st2 {fill:#303030;font-family:微软雅黑;font-size:14pt;font-weight:bold}
.st1 {fill:#ffffff;font-family:微软雅黑;font-size:18pt;font-weight:bold}
]]></style><defs/><rect y="0" fill="#ffffff" width="523" height="788" x="0"/><path transform="matrix(1,0,0,1,209.18,230.95)" ed:parentid="101" ed:tosuperid="102" stroke="#454545" stroke-width="3" fill="none" stroke-linejoin="round" d="M-36.2,95.3C-26.1,10.1,19.1,-127.3,83.1,-127.3" id="103" stroke-linecap="round"/><path transform="matrix(1,0,0,1,209.18,335.4)" ed:parentid="101" ed:tosuperid="104" stroke="#454545" stroke-width="3" fill="none" stroke-linejoin="round" d="M13.4,3.3C27.1,-9.7,51.7,-22.8,83.1,-22.8" id="105" stroke-linecap="round"/><path transform="matrix(1,0,0,1,209.18,485.45)" ed:parentid="101" ed:tosuperid="106" stroke="#454545" stroke-width="3" fill="none" stroke-linejoin="round" d="M-36.2,-95.3C-26.1,-10.1,19.1,127.2,83.1,127.2" id="107" stroke-linecap="round"/><path transform="matrix(1,0,0,1,408.04,73.3)" ed:parentid="102" ed:tosuperid="110" stroke="#454545" fill="none" stroke-linejoin="round" d="M-21.6,30.4L-10.6,30.4C5.7,-30.4,5.7,-30.4,21.6,-30.4" id="111" stroke-linecap="round"/><path transform="matrix(1,0,0,1,408.04,88.5)" ed:parentid="102" ed:tosuperid="112" stroke="#454545" fill="none" stroke-linejoin="round" d="M-10.6,15.2C5.7,-15.2,5.7,-15.2,21.6,-15.2" id="113" stroke-linecap="round"/><path transform="matrix(1,0,0,1,408.04,103.7)" ed:parentid="102" ed:tosuperid="114" stroke="#454545" fill="none" stroke-linejoin="round" d="M-10.6,0C5.7,-0,5.7,-0,21.6,-0" id="115" stroke-linecap="round"/><path transform="matrix(1,0,0,1,408.04,118.9)" ed:parentid="102" ed:tosuperid="116" stroke="#454545" fill="none" stroke-linejoin="round" d="M-10.6,-15.2C5.7,15.2,5.7,15.2,21.6,15.2" id="117" stroke-linecap="round"/><path transform="matrix(1,0,0,1,408.04,134.1)" ed:parentid="102" ed:tosuperid="118" stroke="#454545" fill="none" stroke-linejoin="round" d="M-10.6,-30.4C5.7,30.4,5.7,30.4,21.6,30.4" id="119" stroke-linecap="round"/><path transform="matrix(1,0,0,1,408.04,267)" ed:parentid="104" ed:tosuperid="120" stroke="#454545" fill="none" stroke-linejoin="round" d="M-21.6,45.6L-10.6,45.6C5.7,-45.6,5.7,-45.6,21.6,-45.6" id="121" stroke-linecap="round"/><path transform="matrix(1,0,0,1,408.04,282.2)" ed:parentid="104" ed:tosuperid="122" stroke="#454545" fill="none" stroke-linejoin="round" d="M-10.6,30.4C5.7,-30.4,5.7,-30.4,21.6,-30.4" id="123" stroke-linecap="round"/><path transform="matrix(1,0,0,1,408.04,297.4)" ed:parentid="104" ed:tosuperid="124" stroke="#454545" fill="none" stroke-linejoin="round" d="M-10.6,15.2C5.7,-15.2,5.7,-15.2,21.6,-15.2" id="125" stroke-linecap="round"/><path transform="matrix(1,0,0,1,408.04,312.6)" ed:parentid="104" ed:tosuperid="126" stroke="#454545" fill="none" stroke-linejoin="round" d="M-10.6,0C5.7,-0,5.7,-0,21.6,-0" id="127" stroke-linecap="round"/><path transform="matrix(1,0,0,1,408.04,327.8)" ed:parentid="104" ed:tosuperid="128" stroke="#454545" fill="none" stroke-linejoin="round" d="M-10.6,-15.2C5.7,15.2,5.7,15.2,21.6,15.2" id="129" stroke-linecap="round"/><path transform="matrix(1,0,0,1,408.04,343)" ed:parentid="104" ed:tosuperid="130" stroke="#454545" fill="none" stroke-linejoin="round" d="M-10.6,-30.4C5.7,30.4,5.7,30.4,21.6,30.4" id="131" stroke-linecap="round"/><path transform="matrix(1,0,0,1,408.04,358.2)" ed:parentid="104" ed:tosuperid="132" stroke="#454545" fill="none" stroke-linejoin="round" d="M-10.6,-45.6C5.7,45.6,5.7,45.6,21.6,45.6" id="133" stroke-linecap="round"/><path transform="matrix(1,0,0,1,408.04,536.7)" ed:parentid="106" ed:tosuperid="136" stroke="#454545" fill="none" stroke-linejoin="round" d="M-21.6,76L-10.6,76C5.7,-76,5.7,-76,21.6,-76" id="137" stroke-linecap="round"/><path transform="matrix(1,0,0,1,408.04,551.9)" ed:parentid="106" ed:tosuperid="138" stroke="#454545" fill="none" stroke-linejoin="round" d="M-10.6,60.8C5.7,-60.8,5.7,-60.8,21.6,-60.8" id="139" stroke-linecap="round"/><path transform="matrix(1,0,0,1,408.04,567.1)" ed:parentid="106" ed:tosuperid="140" stroke="#454545" fill="none" stroke-linejoin="round" d="M-10.6,45.6C5.7,-45.6,5.7,-45.6,21.6,-45.6" id="141" stroke-linecap="round"/><path transform="matrix(1,0,0,1,408.04,582.3)" ed:parentid="106" ed:tosuperid="142" stroke="#454545" fill="none" stroke-linejoin="round" d="M-10.6,30.4C5.7,-30.4,5.7,-30.4,21.6,-30.4" id="143" stroke-linecap="round"/><path transform="matrix(1,0,0,1,408.04,597.5)" ed:parentid="106" ed:tosuperid="144" stroke="#454545" fill="none" stroke-linejoin="round" d="M-10.6,15.2C5.7,-15.2,5.7,-15.2,21.6,-15.2" id="145" stroke-linecap="round"/><path transform="matrix(1,0,0,1,408.04,612.7)" ed:parentid="106" ed:tosuperid="146" stroke="#454545" fill="none" stroke-linejoin="round" d="M-10.6,0C5.7,-0,5.7,-0,21.6,-0" id="147" stroke-linecap="round"/><path transform="matrix(1,0,0,1,408.04,627.9)" ed:parentid="106" ed:tosuperid="148" stroke="#454545" fill="none" stroke-linejoin="round" d="M-10.6,-15.2C5.7,15.2,5.7,15.2,21.6,15.2" id="149" stroke-linecap="round"/><path transform="matrix(1,0,0,1,408.04,643.1)" ed:parentid="106" ed:tosuperid="150" stroke="#454545" fill="none" stroke-linejoin="round" d="M-10.6,-30.4C5.7,30.4,5.7,30.4,21.6,30.4" id="151" stroke-linecap="round"/><path transform="matrix(1,0,0,1,408.04,658.3)" ed:parentid="106" ed:tosuperid="152" stroke="#454545" fill="none" stroke-linejoin="round" d="M-10.6,-45.6C5.7,45.6,5.7,45.6,21.6,45.6" id="153" stroke-linecap="round"/><path transform="matrix(1,0,0,1,408.04,673.5)" ed:parentid="106" ed:tosuperid="154" stroke="#454545" fill="none" stroke-linejoin="round" d="M-10.6,-60.8C5.7,60.8,5.7,60.8,21.6,60.8" id="155" stroke-linecap="round"/><path transform="matrix(1,0,0,1,408.04,688.7)" ed:parentid="106" ed:tosuperid="158" stroke="#454545" fill="none" stroke-linejoin="round" d="M-10.6,-76C5.7,76,5.7,76,21.6,76" id="159" stroke-linecap="round"/><g transform="matrix(1,0,0,1,23,326.2)" ed:width="206.24" ed:height="64" id="101" ed:topictype="mainidea" ed:layout="map"><path stroke="#00af54" fill="#00af54" stroke-width="3" stroke-linejoin="round" d="M32,0L174.2,0C191.9,0,206.2,14.3,206.2,32C206.2,49.7,191.9,64,174.2,64L32,64C14.3,64,0,49.7,0,32C0,14.3,14.3,0,32,0z"/><text class="st1"><tspan style="white-space:pre" y="40.65" x="27" textLength="150">23种设计模式</tspan></text></g><g transform="matrix(1,0,0,1,292.24,82.8)" ed:parentid="101" ed:width="94.2" ed:height="41.8" id="102" ed:layout="rightmap"><path stroke="#454545" fill="#ffffff" stroke-width="2" stroke-linejoin="round" d="M4,0L90.2,0C92.9,0,94.2,1.3,94.2,4L94.2,37.8C94.2,40.5,92.9,41.8,90.2,41.8L4,41.8C1.3,41.8,0,40.5,0,37.8L0,4C0,1.3,1.3,0,4,0z"/><text class="st2"><tspan style="white-space:pre" y="27.55" x="18" textLength="57">创建型</tspan></text></g><g transform="matrix(1,0,0,1,292.24,291.7)" ed:parentid="101" ed:width="94.2" ed:height="41.8" id="104" ed:layout="rightmap"><path stroke="#454545" fill="#ffffff" stroke-width="2" stroke-linejoin="round" d="M4,0L90.2,0C92.9,0,94.2,1.3,94.2,4L94.2,37.8C94.2,40.5,92.9,41.8,90.2,41.8L4,41.8C1.3,41.8,0,40.5,0,37.8L0,4C0,1.3,1.3,0,4,0z"/><text class="st2"><tspan style="white-space:pre" y="27.55" x="18" textLength="57">结构型</tspan></text></g><g transform="matrix(1,0,0,1,292.24,591.8)" ed:parentid="101" ed:width="94.2" ed:height="41.8" id="106" ed:layout="rightmap"><path stroke="#454545" fill="#ffffff" stroke-width="2" stroke-linejoin="round" d="M4,0L90.2,0C92.9,0,94.2,1.3,94.2,4L94.2,37.8C94.2,40.5,92.9,41.8,90.2,41.8L4,41.8C1.3,41.8,0,40.5,0,37.8L0,4C0,1.3,1.3,0,4,0z"/><text class="st2"><tspan style="white-space:pre" y="27.55" x="18" textLength="57">行为型</tspan></text></g><g transform="matrix(1,0,0,1,429.64,19)" ed:parentid="102" ed:width="72.40000000000001" ed:height="23.9" id="110" ed:layout="rightmap"><path fill="#ffffff" d="M0,0L72.4,0L72.4,23.9L0,23.9L0,0z"/><path stroke="#454545" fill="none" stroke-linejoin="round" d="M0,23.9L72.4,23.9"/><text class="st3"><tspan style="white-space:pre" y="16.1" x="8" textLength="52">抽象工厂</tspan></text></g><g transform="matrix(1,0,0,1,429.64,49.4)" ed:parentid="102" ed:width="58.8" ed:height="23.9" id="112" ed:layout="rightmap"><path fill="#ffffff" d="M0,0L58.8,0L58.8,23.9L0,23.9L0,0z"/><path stroke="#454545" fill="none" stroke-linejoin="round" d="M0,23.9L58.8,23.9"/><text class="st3"><tspan style="white-space:pre" y="16.1" x="8" textLength="39">构造器</tspan></text></g><g transform="matrix(1,0,0,1,429.64,79.8)" ed:parentid="102" ed:width="72.40000000000001" ed:height="23.9" id="114" ed:layout="rightmap"><path fill="#ffffff" d="M0,0L72.4,0L72.4,23.9L0,23.9L0,0z"/><path stroke="#454545" fill="none" stroke-linejoin="round" d="M0,23.9L72.4,23.9"/><text class="st3"><tspan style="white-space:pre" y="16.1" x="8" textLength="52">工厂方法</tspan></text></g><g transform="matrix(1,0,0,1,429.64,110.2)" ed:parentid="102" ed:width="45.2" ed:height="23.9" id="116" ed:layout="rightmap"><path fill="#ffffff" d="M0,0L45.2,0L45.2,23.9L0,23.9L0,0z"/><path stroke="#454545" fill="none" stroke-linejoin="round" d="M0,23.9L45.2,23.9"/><text class="st3"><tspan style="white-space:pre" y="16.1" x="8" textLength="26">原型</tspan></text></g><g transform="matrix(1,0,0,1,429.64,140.6)" ed:parentid="102" ed:width="72.40000000000001" ed:height="23.9" id="118" ed:layout="rightmap"><path fill="#ffffff" d="M0,0L72.4,0L72.4,23.9L0,23.9L0,0z"/><path stroke="#454545" fill="none" stroke-linejoin="round" d="M0,23.9L72.4,23.9"/><text class="st3"><tspan style="white-space:pre" y="16.1" x="8" textLength="52">单例模式</tspan></text></g><g transform="matrix(1,0,0,1,429.64,197.5)" ed:parentid="104" ed:width="58.8" ed:height="23.9" id="120" ed:layout="rightmap"><path fill="#ffffff" d="M0,0L58.8,0L58.8,23.9L0,23.9L0,0z"/><path stroke="#454545" fill="none" stroke-linejoin="round" d="M0,23.9L58.8,23.9"/><text class="st3"><tspan style="white-space:pre" y="16.1" x="8" textLength="39">适配器</tspan></text></g><g transform="matrix(1,0,0,1,429.64,227.9)" ed:parentid="104" ed:width="45.2" ed:height="23.9" id="122" ed:layout="rightmap"><path fill="#ffffff" d="M0,0L45.2,0L45.2,23.9L0,23.9L0,0z"/><path stroke="#454545" fill="none" stroke-linejoin="round" d="M0,23.9L45.2,23.9"/><text class="st3"><tspan style="white-space:pre" y="16.1" x="8" textLength="26">桥接</tspan></text></g><g transform="matrix(1,0,0,1,429.64,258.3)" ed:parentid="104" ed:width="45.2" ed:height="23.9" id="124" ed:layout="rightmap"><path fill="#ffffff" d="M0,0L45.2,0L45.2,23.9L0,23.9L0,0z"/><path stroke="#454545" fill="none" stroke-linejoin="round" d="M0,23.9L45.2,23.9"/><text class="st3"><tspan style="white-space:pre" y="16.1" x="8" textLength="26">组合</tspan></text></g><g transform="matrix(1,0,0,1,429.64,288.7)" ed:parentid="104" ed:width="45.2" ed:height="23.9" id="126" ed:layout="rightmap"><path fill="#ffffff" d="M0,0L45.2,0L45.2,23.9L0,23.9L0,0z"/><path stroke="#454545" fill="none" stroke-linejoin="round" d="M0,23.9L45.2,23.9"/><text class="st3"><tspan style="white-space:pre" y="16.1" x="8" textLength="26">装饰</tspan></text></g><g transform="matrix(1,0,0,1,429.64,319.1)" ed:parentid="104" ed:width="45.2" ed:height="23.9" id="128" ed:layout="rightmap"><path fill="#ffffff" d="M0,0L45.2,0L45.2,23.9L0,23.9L0,0z"/><path stroke="#454545" fill="none" stroke-linejoin="round" d="M0,23.9L45.2,23.9"/><text class="st3"><tspan style="white-space:pre" y="16.1" x="8" textLength="26">外观</tspan></text></g><g transform="matrix(1,0,0,1,429.64,349.5)" ed:parentid="104" ed:width="45.2" ed:height="23.9" id="130" ed:layout="rightmap"><path fill="#ffffff" d="M0,0L45.2,0L45.2,23.9L0,23.9L0,0z"/><path stroke="#454545" fill="none" stroke-linejoin="round" d="M0,23.9L45.2,23.9"/><text class="st3"><tspan style="white-space:pre" y="16.1" x="8" textLength="26">享元</tspan></text></g><g transform="matrix(1,0,0,1,429.64,379.9)" ed:parentid="104" ed:width="45.2" ed:height="23.9" id="132" ed:layout="rightmap"><path fill="#ffffff" d="M0,0L45.2,0L45.2,23.9L0,23.9L0,0z"/><path stroke="#454545" fill="none" stroke-linejoin="round" d="M0,23.9L45.2,23.9"/><text class="st3"><tspan style="white-space:pre" y="16.1" x="8" textLength="26">代理</tspan></text></g><g transform="matrix(1,0,0,1,429.64,436.8)" ed:parentid="106" ed:width="58.8" ed:height="23.9" id="136" ed:layout="rightmap"><path fill="#ffffff" d="M0,0L58.8,0L58.8,23.9L0,23.9L0,0z"/><path stroke="#454545" fill="none" stroke-linejoin="round" d="M0,23.9L58.8,23.9"/><text class="st3"><tspan style="white-space:pre" y="16.1" x="8" textLength="39">责任链</tspan></text></g><g transform="matrix(1,0,0,1,429.64,467.2)" ed:parentid="106" ed:width="45.2" ed:height="23.9" id="138" ed:layout="rightmap"><path fill="#ffffff" d="M0,0L45.2,0L45.2,23.9L0,23.9L0,0z"/><path stroke="#454545" fill="none" stroke-linejoin="round" d="M0,23.9L45.2,23.9"/><text class="st3"><tspan style="white-space:pre" y="16.1" x="8" textLength="26">命令</tspan></text></g><g transform="matrix(1,0,0,1,429.64,497.6)" ed:parentid="106" ed:width="58.8" ed:height="23.9" id="140" ed:layout="rightmap"><path fill="#ffffff" d="M0,0L58.8,0L58.8,23.9L0,23.9L0,0z"/><path stroke="#454545" fill="none" stroke-linejoin="round" d="M0,23.9L58.8,23.9"/><text class="st3"><tspan style="white-space:pre" y="16.1" x="8" textLength="39">翻译器</tspan></text></g><g transform="matrix(1,0,0,1,429.64,528)" ed:parentid="106" ed:width="58.8" ed:height="23.9" id="142" ed:layout="rightmap"><path fill="#ffffff" d="M0,0L58.8,0L58.8,23.9L0,23.9L0,0z"/><path stroke="#454545" fill="none" stroke-linejoin="round" d="M0,23.9L58.8,23.9"/><text class="st3"><tspan style="white-space:pre" y="16.1" x="8" textLength="39">迭代器</tspan></text></g><g transform="matrix(1,0,0,1,429.64,558.4)" ed:parentid="106" ed:width="58.8" ed:height="23.9" id="144" ed:layout="rightmap"><path fill="#ffffff" d="M0,0L58.8,0L58.8,23.9L0,23.9L0,0z"/><path stroke="#454545" fill="none" stroke-linejoin="round" d="M0,23.9L58.8,23.9"/><text class="st3"><tspan style="white-space:pre" y="16.1" x="8" textLength="39">中介者</tspan></text></g><g transform="matrix(1,0,0,1,429.64,588.8)" ed:parentid="106" ed:width="58.8" ed:height="23.9" id="146" ed:layout="rightmap"><path fill="#ffffff" d="M0,0L58.8,0L58.8,23.9L0,23.9L0,0z"/><path stroke="#454545" fill="none" stroke-linejoin="round" d="M0,23.9L58.8,23.9"/><text class="st3"><tspan style="white-space:pre" y="16.1" x="8" textLength="39">回忆录</tspan></text></g><g transform="matrix(1,0,0,1,429.64,619.2)" ed:parentid="106" ed:width="58.8" ed:height="23.9" id="148" ed:layout="rightmap"><path fill="#ffffff" d="M0,0L58.8,0L58.8,23.9L0,23.9L0,0z"/><path stroke="#454545" fill="none" stroke-linejoin="round" d="M0,23.9L58.8,23.9"/><text class="st3"><tspan style="white-space:pre" y="16.1" x="8" textLength="39">观察者</tspan></text></g><g transform="matrix(1,0,0,1,429.64,649.6)" ed:parentid="106" ed:width="58.8" ed:height="23.9" id="150" ed:layout="rightmap"><path fill="#ffffff" d="M0,0L58.8,0L58.8,23.9L0,23.9L0,0z"/><path stroke="#454545" fill="none" stroke-linejoin="round" d="M0,23.9L58.8,23.9"/><text class="st3"><tspan style="white-space:pre" y="16.1" x="8" textLength="39">状态机</tspan></text></g><g transform="matrix(1,0,0,1,429.64,680)" ed:parentid="106" ed:width="45.2" ed:height="23.9" id="152" ed:layout="rightmap"><path fill="#ffffff" d="M0,0L45.2,0L45.2,23.9L0,23.9L0,0z"/><path stroke="#454545" fill="none" stroke-linejoin="round" d="M0,23.9L45.2,23.9"/><text class="st3"><tspan style="white-space:pre" y="16.1" x="8" textLength="26">策略</tspan></text></g><g transform="matrix(1,0,0,1,429.64,710.4)" ed:parentid="106" ed:width="72.40000000000001" ed:height="23.9" id="154" ed:layout="rightmap"><path fill="#ffffff" d="M0,0L72.4,0L72.4,23.9L0,23.9L0,0z"/><path stroke="#454545" fill="none" stroke-linejoin="round" d="M0,23.9L72.4,23.9"/><text class="st3"><tspan style="white-space:pre" y="16.1" x="8" textLength="52">模板方法</tspan></text></g><g transform="matrix(1,0,0,1,429.64,740.8)" ed:parentid="106" ed:width="58.8" ed:height="23.9" id="158" ed:layout="rightmap"><path fill="#ffffff" d="M0,0L58.8,0L58.8,23.9L0,23.9L0,0z"/><path stroke="#454545" fill="none" stroke-linejoin="round" d="M0,23.9L58.8,23.9"/><text class="st3"><tspan style="white-space:pre" y="16.1" x="8" textLength="39">参观者</tspan></text></g></svg>